<svg xmlns="http://www.w3.org/2000/svg" xmlns:xlink="http://www.w3.org/1999/xlink" width="72.473" height="44.17" viewBox="0 0 72.473 44.17">
  <defs>
    <clipPath id="clip-path">
      <rect id="Rectangle_1466" data-name="Rectangle 1466" width="72.473" height="44.17" fill="none"/>
    </clipPath>
  </defs>
  <g id="Group_4272" data-name="Group 4272" transform="translate(0 0)">
    <g id="Group_3317" data-name="Group 3317" transform="translate(0 0)" clip-path="url(#clip-path)">
      <path id="Path_3337" data-name="Path 3337" d="M35.59,33.539a.976.976,0,0,1-.977-.975V6.767a.976.976,0,1,1,1.952,0v25.8a.975.975,0,0,1-.975.975" transform="translate(14.606 2.443)"/>
      <path id="Path_3338" data-name="Path 3338" d="M21.918,35.612a7.666,7.666,0,1,1,7.666-7.666,7.674,7.674,0,0,1-7.666,7.666m0-13.379a5.714,5.714,0,1,0,5.714,5.714,5.72,5.72,0,0,0-5.714-5.714" transform="translate(6.014 8.558)"/>
      <path id="Path_3339" data-name="Path 3339" d="M20.713,30.347a3.606,3.606,0,1,1,3.606-3.606,3.61,3.61,0,0,1-3.606,3.606m0-5.26a1.654,1.654,0,1,0,1.654,1.654,1.656,1.656,0,0,0-1.654-1.654" transform="translate(7.219 9.762)"/>
      <path id="Path_3340" data-name="Path 3340" d="M43.7,30.347a3.606,3.606,0,1,1,3.606-3.606A3.61,3.61,0,0,1,43.7,30.347m0-5.26a1.654,1.654,0,1,0,1.654,1.654A1.656,1.656,0,0,0,43.7,25.087" transform="translate(16.92 9.762)"/>
      <path id="Path_3341" data-name="Path 3341" d="M44.907,35.612a7.666,7.666,0,1,1,7.666-7.666,7.674,7.674,0,0,1-7.666,7.666m0-13.379a5.714,5.714,0,1,0,5.714,5.714,5.72,5.72,0,0,0-5.714-5.714" transform="translate(15.715 8.558)"/>
      <path id="Path_3342" data-name="Path 3342" d="M67.944,35.982H63.577a.975.975,0,0,1-.951-.758,5.7,5.7,0,0,0-11.113,0,.975.975,0,0,1-.951.758H30.887a.975.975,0,0,1-.951-.758,5.7,5.7,0,0,0-11.113,0,.975.975,0,0,1-.951.758H9.393a.975.975,0,0,1-.975-.975v-14.3a.976.976,0,1,1,1.952,0V34.029h6.764a7.65,7.65,0,0,1,14.489,0h18.2a7.65,7.65,0,0,1,14.489,0h2.655V21.66L60.727,10.186H46.644a.976.976,0,0,1-.977-.975V1.952H41.139a.976.976,0,0,1,0-1.952h5.5a.976.976,0,0,1,.975.977V8.233H61.307a.979.979,0,0,1,.857.509l6.636,12.2a.975.975,0,0,1,.118.466v13.6a.975.975,0,0,1-.975.975" transform="translate(3.552 0)"/>
      <path id="Path_3343" data-name="Path 3343" d="M55.173,18.993H39.658a.976.976,0,0,1-.977-.975V9.054a.976.976,0,1,1,1.952,0V17.04h12.9L49.424,9.489a.976.976,0,1,1,1.715-.934l4.892,8.994a.976.976,0,0,1-.857,1.443" transform="translate(16.323 3.395)"/>
      <path id="Path_3344" data-name="Path 3344" d="M12.033,12.18H10.08a.976.976,0,0,1,0-1.952h1.952a.976.976,0,0,1,0,1.952" transform="translate(3.842 4.316)"/>
      <path id="Path_3345" data-name="Path 3345" d="M8.591,12.18H4.926a.976.976,0,0,1,0-1.952H8.591a.976.976,0,1,1,0,1.952" transform="translate(1.667 4.316)"/>
      <path id="Path_3346" data-name="Path 3346" d="M2.928,12.18H.975a.976.976,0,0,1,0-1.952H2.928a.976.976,0,0,1,0,1.952" transform="translate(0 4.316)"/>
      <path id="Path_3347" data-name="Path 3347" d="M10.7,7.066H8.751a.976.976,0,0,1,0-1.952H10.7a.976.976,0,1,1,0,1.952" transform="translate(3.281 2.158)"/>
      <path id="Path_3348" data-name="Path 3348" d="M7.518,7.066H4.484a.976.976,0,1,1,0-1.952H7.518a.976.976,0,0,1,0,1.952" transform="translate(1.48 2.158)"/>
      <path id="Path_3349" data-name="Path 3349" d="M2.928,7.066H.975a.976.976,0,0,1,0-1.952H2.928a.976.976,0,0,1,0,1.952" transform="translate(0 2.158)"/>
      <path id="Path_3350" data-name="Path 3350" d="M13.327,1.952H11.374a.976.976,0,0,1,0-1.952h1.952a.976.976,0,0,1,0,1.952" transform="translate(4.388 0)"/>
      <path id="Path_3351" data-name="Path 3351" d="M9.635,1.952H5.358A.976.976,0,1,1,5.358,0H9.635a.976.976,0,0,1,0,1.952" transform="translate(1.849 0)"/>
      <path id="Path_3352" data-name="Path 3352" d="M2.928,1.952H.975A.976.976,0,0,1,.975,0H2.928a.976.976,0,0,1,0,1.952" transform="translate(0 0)"/>
      <path id="Path_3353" data-name="Path 3353" d="M46.644,22.232H9.395a.976.976,0,1,1,0-1.952H46.644a.976.976,0,0,1,0,1.952" transform="translate(3.552 8.558)"/>
      <path id="Path_3354" data-name="Path 3354" d="M32.214,23.486a.975.975,0,0,1-.975-.975V3.905a.975.975,0,0,1,1.951,0V22.511a.975.975,0,0,1-.975.975" transform="translate(13.182 1.236)"/>
      <path id="Path_3355" data-name="Path 3355" d="M26.861,16.5H14.528a.976.976,0,0,1,0-1.952H26.861a6.3,6.3,0,1,0,0-12.592h-9.4a.976.976,0,1,1,0-1.952h9.4a8.248,8.248,0,1,1,0,16.5" transform="translate(5.719 0)"/>
      <path id="Path_3356" data-name="Path 3356" d="M24.349,8.97a.975.975,0,0,1-.789-.4L22.414,7a.979.979,0,0,1-.188-.577V5.291a.976.976,0,0,1,1.952,0v.818l.957,1.308a.975.975,0,0,1-.786,1.553" transform="translate(9.379 1.821)"/>
      <path id="Path_3357" data-name="Path 3357" d="M23.2,4.691a.975.975,0,0,1-.975-.975V2.525a.975.975,0,1,1,1.951,0v1.19a.975.975,0,0,1-.975.975" transform="translate(9.379 0.653)"/>
      <path id="Path_3358" data-name="Path 3358" d="M27.121,7.066H25.93a.976.976,0,0,1,0-1.952h1.19a.976.976,0,0,1,0,1.952" transform="translate(10.531 2.158)"/>
      <path id="Path_3359" data-name="Path 3359" d="M23.2,10.987a.975.975,0,0,1-.975-.975V8.821a.975.975,0,1,1,1.951,0v1.19a.975.975,0,0,1-.975.975" transform="translate(9.379 3.31)"/>
      <path id="Path_3360" data-name="Path 3360" d="M20.825,7.066h-1.19a.976.976,0,0,1,0-1.952h1.19a.976.976,0,0,1,0,1.952" transform="translate(7.874 2.158)"/>
    </g>
  </g>
</svg>
